<svg id="layer" xmlns="http://www.w3.org/2000/svg" viewBox="0 0 512 512"><defs><style>.cls-1{fill:none;}.cls-1,.cls-2,.cls-3{stroke:#41b883;}.cls-1,.cls-3{stroke-linecap:round;stroke-linejoin:round;}.cls-2,.cls-3{fill:#41b883;}.cls-2{stroke-miterlimit:10;}</style></defs><title>holdhands01c</title><path id="path02" class="cls-1" d="M178.58,89.47c-.18,0-.64.51-1.28,1.36-2.58,3.42-8,12-8.57,11.23-.77-1-7.11-17.07-7.11-17.07s1.86-5.48,2.4-7.23,1.85-4.24,1.8-3.14a3.7,3.7,0,0,0,.18,1.23C167.54,81,178.58,89.47,178.58,89.47ZM197.5,76.8a2.81,2.81,0,0,0,0-2.33m0,2.34a12.12,12.12,0,0,1-3.16,4.24,44,44,0,0,1-10.44,7.3,8,8,0,0,1-2.47.9l.53.59c.45.5,1.13,1.29,1.94,2.3a59.49,59.49,0,0,1,3.88,5.32c2.95,4.6,4.43,5.15,4.43,5.15S202,85.42,202.44,83.78a.24.24,0,0,0,0-.08m0,0c.33-1.73-2.21-6.83-2.75-8.33a2,2,0,0,0-2.18-1.24M161.62,85S132.53,97.38,131,98.14s-7,7.7-9.43,14.42-4.51,43.13-4.51,43.13,1.16.48,3,1.06a37.63,37.63,0,0,0,11.41,2,24.39,24.39,0,0,0,8.28-1.5,15.62,15.62,0,0,0,1.62-.73M138.62,241c10.74,1.29,32.52,5.55,43.6,9.08a71.3,71.3,0,0,0,41.57.42,7.64,7.64,0,0,0,1.85-.88c1.42-1,1-2,1-2s-.78-64.51-1-74.55c-.06-2.76-.07-6.91,0-11.63v-.06c.07-12.45.38-28.9.7-34.59m-85.86,49.11c.18-4.92.4-9.62.71-13.41.15-1.76.2-3.77.18-5.93-.09-13.23-2.79-32-2.79-32m.26,116.83c-.07-.14-.14-.29-.21-.46-1.26-3.21-1.7-11.82-.92-19.89.16-1.61.37-3.56.62-5.7,0-.23.05-.45.08-.68s.07-.57.1-.85.09-.79.14-1.19v0c1.09-9.22,2.5-20.78,2.41-25.86-.07-3.41-.32-7.28-.58-10.85h0c-.26-3.61-.52-6.91-.59-9.12,0-1.87-.1-5.71-.14-9.49m-19.69-.52c.73,4.87,1.39,11.25.48,14.61-1.2,4.43-1,18.82-.6,22.51s3.29,25.59,4.28,29.85,2.15,13.14,1.71,18.1,2.14,6.93,3.24,14.28A60.19,60.19,0,0,0,132,268a106,106,0,0,0,3.8-11.26c.82-3.18,2-9.64,2.84-14.2q.1-.6.21-1.14m9.56,195.82-.33-3.09h0c-1.14-11.17-2.72-31-2.72-35.48,0-5.83.3-25.52.15-31.8s-2.09-35.41-2.84-40.93c-.68-5-3.46-23.27-4.74-30.36h0c-.12-.7-.24-1.3-.33-1.76-1-5.08-6.12-23.6-6.12-23.6L132,268M177.3,90.83l-.36,45.92h7V92.14M170.53,437.66c.13-.83.26-1.78.4-2.81,1.38-10.56,3-30.41,3-36.48,0-6.85,3.12-34.61,3.54-41.47s3.74-62.13,3.74-70.44-.62-19.75-.62-19.75M219.94,438c.1-1,.22-2.18.37-3.54.76-7.3,2.07-19.37,3.3-27.95,1.87-13.1.21-31.5-.62-35.45s-2.71-20.16-2.71-32.83,3.95-34.71,4.78-46.77.63-27,.63-36.37c0-2.05,0-3.88-.05-5.49M199.85,437.48c-.12-1-.28-2.4-.47-4-1.12-9.61-3.18-27.8-3.62-36.15a351.1,351.1,0,0,0-5.41-40.22c-1.66-7.69-2.7-22.65-2.7-26.4s-6.44-44.25-6.44-44.25m18.17,147a21.2,21.2,0,0,0-1,7.91c.14,1.62,1.87,3.76,4.81,5.15a15.41,15.41,0,0,0,6.12,1.43,19.16,19.16,0,0,0,8-1.14h0a7.56,7.56,0,0,0,4.19-4c1.43-3.24.12-7.34-1.16-8.44m-21.23,2.5a8.23,8.23,0,0,0,.77.55,16.83,16.83,0,0,0,9.63,2.42c1.93-.06,3.61-.18,5-.37a12.67,12.67,0,0,0,5.42-1.56,2.46,2.46,0,0,0,.79-.83m-72.67-3h0a20.29,20.29,0,0,0-.88,7.25c.12,1.34,1.4,3,3.6,4.36a16.41,16.41,0,0,0,8,2.22,23.31,23.31,0,0,0,7.61-.82,8.19,8.19,0,0,0,5.35-4.28,8.48,8.48,0,0,0-.82-8m-23,2.08s.15.12.42.3A18.5,18.5,0,0,0,159,439.9a51.81,51.81,0,0,0,6.8-.57c2.35-.38,3.91-.94,4.71-1.67a1.89,1.89,0,0,0,.43-.52m32.18,9.4a22.11,22.11,0,0,1-.75,6.15,17.64,17.64,0,0,0-.39,6.46,31.65,31.65,0,0,1-.69,6.39m16.05-.5a13.16,13.16,0,0,1,.55-4.42c.65-1.52.22-4.33-.33-6.72a36.4,36.4,0,0,1-.3-7.07h0M225,490.37a7.33,7.33,0,0,0-.06-2.07c-.35-1.76-3.6-10.09-3.88-11.65s-2.33-11.22-2.33-11.22a11.43,11.43,0,0,0-1.36-.39c-1.22-.31-2.81-.67-2.81-.67s-1.13-1.69-5.08-1.77-4.31,1.7-6.28,2.19a8.09,8.09,0,0,0-1.88.75,6.34,6.34,0,0,0-1.3.95,39.15,39.15,0,0,0-1.34,8.33c.07,3.1.63,6.28.7,8.33s-1.2,6.07-.84,9.88,4,5.37,6.21,5.79,7.06.78,13.69-1.06c4.91-1.36,6.31-4.91,6.56-7.39M198.53,493a13.83,13.83,0,0,0-.85,3.74c0,1.49,4.45,5.37,8.12,5.79s11.93.29,14.47-1.48,5.51-4.24,5.65-6.42a7.64,7.64,0,0,0-.93-4.29h0m-10.44-26L216,480m-12.84-15.18,1,13.84m14,9.51a23.15,23.15,0,0,0-6.32-.69,34.65,34.65,0,0,0-7.82,1.25m-52.74-23.47a65.7,65.7,0,0,1,.64-8.86c.23-2.17-.69-7.84-1.17-10.62m15.62,1.4c-.21,2.12-.49,5.21-.49,6.83,0,2,.81,6,1.23,8.85.12.85.21,1.6.23,2.19a23.58,23.58,0,0,1-.05,3.25m.78-2.94a5.78,5.78,0,0,1-.78,2.94,1.55,1.55,0,0,1-1.3.71c-1.88,0-7.4-2.61-7.4-2.61a17.56,17.56,0,0,0-5.21-1.35,6.18,6.18,0,0,0-2.1.21,7.65,7.65,0,0,0-2.7,1.35s-3.54,8-5.1,11.05-9.59,10.83-11.25,12.71c-1.41,1.58-4.23,5.69-3.63,8.06a2,2,0,0,0,.71,1.11c2.4,1.87,4.17,2.6,8.75,2.5s14.28-2.71,17.19-5.42a13.71,13.71,0,0,0,2.15-2.76c.71-1.12,1.38-2.36,2-3.58,1.24-2.32,2.36-4.51,3.33-5.43a7,7,0,0,1,1.32-.94c2.58-1.52,6.89-3,7.32-4.79.54-2.25-.1-5.21-.52-7.3s-1.56-4.89-2.08-6.56a5.5,5.5,0,0,0-1.69-2.4m-7.68,27.42,5.83,1.13a11.27,11.27,0,0,0,6.46-5.42l-.32-6.87m-6.87,10.1-.45-5.31M128.63,498.4c-3.69,3.65-.78,6.14,2.79,6.74a47.31,47.31,0,0,0,14.28-.42c3.85-.84,10.21-3.44,11.67-5.31,1.29-1.66.95-3.8.06-5.58M147.52,492a16.33,16.33,0,0,0-5.16-1.62,19.43,19.43,0,0,0-9,.73m16.47-8.13,8.75-16.57M169.47,97a1.18,1.18,0,1,0,1.18,1.18A1.17,1.17,0,0,0,169.47,97Zm22.19.46a1.18,1.18,0,1,0,1.17,1.17A1.17,1.17,0,0,0,191.66,97.41Zm-11.1-5.17a1.18,1.18,0,1,0,1.18,1.18A1.17,1.17,0,0,0,180.56,92.24Zm0,16.56a1.18,1.18,0,1,0,1.18,1.18A1.17,1.17,0,0,0,180.56,108.8Zm0,16.86a1.18,1.18,0,1,0,1.18,1.18A1.17,1.17,0,0,0,180.56,125.66ZM166,75.85c0-.37-.06-.79-.1-1.25-.3-3.49-.86-9.15-1.21-12.94m34.2-2.27c-.39,4-1.19,11.17-1.25,11.74s-.08,1.59-.11,3v.34h0c0,.74,0,1.54,0,2.33h0m2.27-43.23a5.42,5.42,0,0,1-1.08-.1c-3.18-.61-8.55-3.64-8.24-2.38.35,1.42,2.48,1.89,0,1.42s-9.55-5.31-8.14-3.31,2.36,2.6-.59,2.24-14.39-4.36-14.39-4.36l-1.41,6.14-2.36,3.88L162,49.21h0c-.35-2.51-.58-4.7-.71-6l0,0h0a2.73,2.73,0,0,0-1.74-.52,3.11,3.11,0,0,0-1.4.46c-2.3,1.36-1.57,4.18-1.36,5s2.93,8.89,4.6,9.52a8.09,8.09,0,0,0,2.22.48h0a26.85,26.85,0,0,0,1,3.43h0a9.37,9.37,0,0,0,.58,1.26c2.39,4.2,9.46,10.07,12.85,11.81a8.26,8.26,0,0,0,8.37-.31c2.51-1.57,10.52-8.2,11.35-11.13.21-.74.59-2.13,1-3.9h0c.17-.62.34-1.28.52-2h0c.62,0,1.4,0,2-.09,1.15-.11,4.29-7.22,4.92-8.47a4.45,4.45,0,0,0,0-4.71,2.77,2.77,0,0,0-2-1.16,6.7,6.7,0,0,0-1.6,0h0c-.34,2.08-1,5-1.72,8.1h0l.2-12.14-2.36-4.13-.13-1.28M204.3,43c.43-3.28,1.31-9,1.46-10.8.19-2.22.37-11.11,1.49-11.11s3.34-.23.93-1.52-9.65-7.67-8-7.86,2.65-1.27.61-1.27-11.54-5.1-16.35-4.92S172,8.39,169.19,10.8s-7.29,9.42-7.29,9.42c-3.82,1.79-5.42,6.22-6.35,7.52s1.67,1.3,1.3,2,2,1.11,2.22,5c.15,3.08.41,6.62.52,8m87.66,116.94a22.45,22.45,0,0,0,5.15-3.16,7.7,7.7,0,0,0,1.24-1.28s-4-25.82-7.4-32.85a190.57,190.57,0,0,0-11.76-20.13c-1-1.09-13.58-8.61-19.16-10.79-4.42-1.74-10.53-6.06-12.86-7.77h0m49.94,72.83a23.65,23.65,0,0,0-5.64.17h0c-2.41.46-13.24,2.9-18.75,4.14l-2.35.52m34.3,115c-.45,1.09-2,1-3.33.93-1.51-.08-4.87.45-5.14-1.32a50.93,50.93,0,0,1-.38-6.75c0-.57,0-1.16,0-1.76a41.69,41.69,0,0,1,.56-6.3h0a7.49,7.49,0,0,1,1.12-3.07,13.7,13.7,0,0,0,2.09-7.08c-.12-1.54-1-12.3-1.7-15.5s-4.43-14.88-7.52-20.54a110.23,110.23,0,0,1-6.21-13.9c-1.08-2.82-2.5-9.22-4.26-13.14s-2.43-9.69-3.45-13.1c-.69-2.33-2.44-8.92-3.48-12.86-.1-.39-.2-.75-.28-1.08m49.93,111.68c1.11,0,1.46-1.82,1.42-3.29a58.7,58.7,0,0,0-.86-8,7.19,7.19,0,0,0-1.25-2.62c-.83-1.19-1.85-2.23-2.46-3.09-1-1.44-4.26-6.8-5.22-9.88-.23-.74-.44-1.46-.64-2.15-1.21-4.23-1.92-7.67-2.89-11.46-1.13-4.4-3.44-11.56-4.52-18.73s-3.88-17.37-5.55-23.26-3.57-12.89-4.73-15.44-2.62-5-2.86-7.62c-.12-1.22-.61-4.32-1.1-7.31-.17-1-.34-2.06-.49-3m30.84,114.1c-.34-1.81-.75-3.76-.75-3.76m-.87,9.28c2.06,0,2.06-1.67,2.06-2.63a9.91,9.91,0,0,0-.13-1.16c-.05-.26-.09-.55-.15-.86s-.1-.57-.16-.87M274,280.38c2.33.15,2.29-1.57,2.18-2.7,0-.27-.11-.77-.22-1.37-.16-.86-.38-1.94-.58-2.88,0-.21-.09-.42-.13-.62-.19-.92-.34-1.59-.34-1.59m-7.78,9.91a2.36,2.36,0,0,0,1,.59,7.11,7.11,0,0,0,5.49-.88,1,1,0,0,0,.34-.46c.75-1.9-2.47-7-2.47-7M150.75,156.93s8,16,26.27,29.16m98.25,86.72a3.09,3.09,0,0,0,2.33-2h0m-2.2,2.64a2.52,2.52,0,0,0,1.34-.54,3.51,3.51,0,0,0,1-1.23M214.52,439.53c.92-3.71,2-9.88,2-9.88M137.9,295.56h0c4.21,9.08,15.75,33.37,19.4,35.2m8.51,108.56a18.75,18.75,0,0,0,1.12-5.21M178.58,89.51l2.74-.31m44.31,72.22a18.26,18.26,0,0,0,2.63.5M215.05,371.18c2.43-5.17,5.16-33.12,5.16-33.12M159,472.44a12,12,0,0,0-2.89-1.38,15.11,15.11,0,0,0-9.48-.1m10.11,5.5a12.4,12.4,0,0,0-2.77-1.34,15.11,15.11,0,0,0-9.13-.28m72.61-4a13.26,13.26,0,0,0-8.42-2.53c-4.81,0-7.1,2.16-7.1,2.16m15.52,4.87a13.26,13.26,0,0,0-8.42-2.53c-4.81,0-7.1,2.16-7.1,2.16"/><path id="path01" class="cls-1" d="M320.3,100.17a5.53,5.53,0,0,1-1-1.53c-.6-1.51-3.61-7.13-1.91-8a2.2,2.2,0,0,1,2.73.24c.09.43.19.89.3,1.35m2.24,8.21q.15.5.3,1c0,.13.08.27.13.4.26.82.49,1.52.68,2a14.62,14.62,0,0,0,2.27,3.8c2.78,3.56,7.58,7.53,12.82,7.65,5.7.14,10.53-5.12,13-9.08a17.18,17.18,0,0,0,1.55-3c.69-1.75,2-7.51,2.7-11.07m-33.47,8.26a1.73,1.73,0,0,0-1.32-.6,1.7,1.7,0,0,0-1.07.36,1.76,1.76,0,1,0,2.82,1.6m33.14-8.66a7.81,7.81,0,0,0-.1-1h0c-.73-4.41-5.28-9.47-7.17-10.19s-12-1.09-12-1.09c-3.27-1.87-8.26-12.56-8.26-12.56-.06,1.8-.05,9.6-.05,12.24,0,.55,0,.87,0,.87-1,.47-5.1,1.86-6.19,3.81a34.7,34.7,0,0,0-2,7M347,160.6c4,1,9.7,1.49,13.6-1,4.42-2.87,10.4-9.65,8.44-14.94,0,0,0-.09-.05-.14a68.39,68.39,0,0,1-4-15.85c0-.15,0-.3,0-.45-.3-4.52,2.87-16.59,3.47-22.77s-2.11-13.73-3.77-21.57-4.83-12.22-8.6-16.59-11.92-10.72-22.17-8.9S313.65,71.92,312.6,82.48s-.61,28.36,1.2,33a28.41,28.41,0,0,1,1.32,14.88m28.42,29A20.19,20.19,0,0,0,347,160.6m-3.44-1.17c-1.87-.87-2.2-1.61.44-1.23,7.39,1.06,10.71-7.54,11-11.31.26-3.25-3.51-8.18-3.69-12.47a6.12,6.12,0,0,1,.22-2c1.36-4.68,0-11.92-.15-14.18-.1-1.56.3-8.12.55-12.06m-25.84,1.43c.61,3.06,1.85,10,1,12.58-1.1,3.31-3.41,7.73-9.13,9.43-.81.24-1.77.51-2.82.78l-1.88.48h0l-1.13.28c-6.19,1.53-13.88,3.28-16.24,4.38-3.21,1.51-6.52,4.12-7.62,12.15s-.1,12.64.4,16.55-.91,22.08-1.81,27.2-2.1,11.53-5.32,17.36c-2.86,5.19-10.21,28.79-12.61,34.71m31.43-86.27s1.71,6.19,2.79,9.62m82.42,127.77.1-.06,2.34-3.19m-6.63,5.15-2.51,0a2.88,2.88,0,0,0-1,.2,1.27,1.27,0,0,0-1,1.29c.1.74,2.11,1.21,3.08,1.39m6.24-8.64-.42.45m-4.89,3.13-1.53-.34a7.43,7.43,0,0,0-1.6-.18,3.43,3.43,0,0,0-.56,0,1.72,1.72,0,0,0-1.4.82c-.34.65.45,1.25,1.15,1.63a6.75,6.75,0,0,0,.9.41m2.92-4.24a4.63,4.63,0,0,0-2.54-.14,1.51,1.51,0,0,0-.47,1.48M347,160.6h0c-4.49,2.23-8.24,4-8.24,4s-7-3.48-11.8-6.36h0a35.37,35.37,0,0,1-3.57-2.34c-2.94-2.31-10.32-9.07-12.65-11.21L310,144l-.2.68h0c-.87,3.05-4.44,15.57-6.67,22.15h0a28.8,28.8,0,0,1-1.51,3.87c-1.57,2.55-3.84,33.23-4.41,40.76-.19,2.52-.54,7-.94,12.06h0c-.78,10-1.76,22.23-2,25.45-.43,4.82-1.56,11.79-1.28,15.05a41.86,41.86,0,0,0,2,8.1l.42.08a67.69,67.69,0,0,0,8.25.91,102.64,102.64,0,0,0,18.74-.71,96.79,96.79,0,0,1,14.11-.19c2.7,0,12.71.25,17.86,2,2.84,1,16.65,3.08,20,3.08a17.59,17.59,0,0,0,3.9-.42c.5-.12.9-.23,1.18-.32l.5-.18s.86-14.27.6-17.85-1.47-30.24-1.6-34.89-2.38-24.6-2.45-27.85-1.39-13.67-1.26-15.92-.2-8.56-.93-10.68c-.12-.36-.29-.95-.5-1.71-1-3.82-2.86-11.75-3.08-13.35a58.4,58.4,0,0,1-.58-9.17q0-.6.09-1.11a.31.31,0,0,0-.54-.24c-.1.1-.2.22-.3.34h0l-.4.47m10.46,132.14a18.26,18.26,0,0,0,.39,5,31.08,31.08,0,0,1,1,7c0,.8-.11,2.32-.07,3.92,0,.62.05,1.25.12,1.86a9.14,9.14,0,0,0,.48,2.16,2.81,2.81,0,0,0,1.18,1.52,1.93,1.93,0,0,0,.68.21,1.42,1.42,0,0,0,1.37-.64m1-3a6.62,6.62,0,0,1-1,3l.3-.08,2.74-2.47,1.17-4.33.19-1.79c0-.49.18-2.15-.47-2.41a10.83,10.83,0,0,0-2.1-.73c-.36,0-.7.6-.7,2.2,0,.51.06,1.76.05,3.23a25.84,25.84,0,0,1-.22,3.39m-3,3.42-.53.08a2.84,2.84,0,0,0-2.06,1.3c-.15.3-.13.57.12.72.72.45,4.1.72,5.54.45a19,19,0,0,0,4.59-1.71c1.44-.72,2-2.7,2.38-4.32a66,66,0,0,1,2.08-6.84c.81-2.25-.26-4.09-1.46-7.92a52.07,52.07,0,0,1-1.8-17.68c.55-6.6,1.1-32.08,1.1-39.41s-2.56-19.25-2.93-21.81-1.9-21.08-.51-29.55.46-21-.81-26.2-5.91-6.73-10-9.39a79.36,79.36,0,0,0-8.08-4.27l-1.21-.61h0a39.89,39.89,0,0,1-4-2.25m-38.06,29.6h0c3.39.37,10.51,1.06,16.6,1.2h0m-6.3-23.78c-.11-.32-1.17-1.06-3.08-1.38s-11.79-.35-15.92-1.09m33.05,1.24-3,0a4.32,4.32,0,0,0-3.61,1.81m-31.42-5.39h0a29.92,29.92,0,0,0-2.53,13.81m1.4-13.53a30.92,30.92,0,0,0-2.31,13.55h0m60.33.32h0c.06-.42,1.25-9.36,0-13.53M369.36,144h0c.12-1.09.32-3.06.41-5.17.17-4-.11-6.69-.8-8h0M277.22,258.62c3-5.55,13.54-24.82,19-35.07h0m-.91,48.68a110.66,110.66,0,0,0,2.72,28c3.28,14.09,7.34,43.3,8.11,52.18s1.35,34.8,1.54,40.78c0,.55,0,1.14.09,1.76a216.09,216.09,0,0,0,3,22c1.35,7.33,6.95,38.59,6.95,38.59a12.75,12.75,0,0,0,2.15.46,27.93,27.93,0,0,0,9.62-.46,20.83,20.83,0,0,0,5-1.62c2.31-1.17,2.31-2.24,2.31-2.24s-1.93-21.23-2.13-28.56-.38-55.64-.19-61.63.58-39.43.77-48.88,1.07-26.79,1.07-26.79,2.6,13.28,3,20.8,1.92,52.56,2.7,57.19,2.51,27.08,2.51,37.12.38,33.38-.39,40.52-1,12.35-1,12.35l1.73.2c2.59.3,7.53.82,10.82,1a12.61,12.61,0,0,0,3.73-.33,5,5,0,0,0,2.44-1.21s.77-17,1.93-23,5-22.77,5.79-33.38-.39-33.07-.19-40.59c.09-3.54,2.44-19.65,4.69-36.93v0c1-7.84,2-15.92,2.76-23.17m.25-2.45c.68-6.89,1.1-12.86,1.06-16.94M347.7,259.16c10.85-9.71,15.41-59.94,15.41-59.94M251.67,261.11h0a32.72,32.72,0,0,0-3.57,3.77c-.51.44-.14,2.53-.36,4.12s-.87,2.67.79,2.6c1.16-.05,2-1.35,2.55-2.43m7.68,4.14a16.85,16.85,0,0,1,.9-1.93c1-1.91,2.8-5.14,3.08-7.15.12-.87,0-1.51-.7-1.73-2.16-.72-6.44,6.6-6.86,7.94-.36,1.16.15,3,1.23,3.26a3.62,3.62,0,0,0,2.35-.39,1.48,1.48,0,0,0,0,.24c0,.43-.65,2.17.65,2.6.19.06.38.12.56.16a3,3,0,0,0,2-.16,1,1,0,0,0,.36-.36c.36-.65,1.8-3.83,2.31-4.84a29,29,0,0,0,1.48-3.78,4,4,0,0,0,.18-.92c0-.79.15-2.6-1.37-3a2.19,2.19,0,0,0-2.12.94m-.84,11.92c-.24,2.4.06,2.87,1.05,3.29a2,2,0,0,0,2.29-.79m0,0a20,20,0,0,0,1.71-3.73l.25-.78m0,0c.58-1.85,1.74-6.35.31-6.95a1.72,1.72,0,0,0-1.46,0m-.81,11.48h0a2.37,2.37,0,0,0,1.91,2.47,1.14,1.14,0,0,0,.26,0c1.08,0,1.81-.43,1.68-2.42-.06-.82,1.33-4.37-.11-5a1.59,1.59,0,0,0-1.78.36h0m51.33,190.58c.2-.86.43-1.78.52-2.24a64.08,64.08,0,0,0,.86-6.51m12.69,15.59,1.68-2.22c.12-.15.23-.31.33-.46m0,0c2-3,1.08-6.35.76-7.59a44.5,44.5,0,0,1-.82-7.4m-7,31.06c1.59-2.6,1.9-6.12,2.42-7.67.59-1.75,2.13-4,2.67-5.72h0a2.67,2.67,0,0,0,.16-1.35c-.32-1.63-4.46-5.44-10.77-5.44-1.35,0-2.5,0-3.46,0-1.9,0-3,.16-3.39,1.25-.55,1.63-2.4,4-3.49,6.52S305.89,478.6,306,483v.13a4.91,4.91,0,0,0,.52,2c1.28,2.53,4.62,3.2,6.55,3.38,2.39.22,6.64.87,11.21-.77a6.18,6.18,0,0,0,3.23-2.77m-3.23,2.77a9.88,9.88,0,0,0-1.75-4.35,7.6,7.6,0,0,0-3.31-2.47,17.32,17.32,0,0,0-6.26-1.12,9.27,9.27,0,0,0-6.87,3.19l-.09.1m13.22-2.17c-1,.74-3.32,2.41-4.33,3.16a1.58,1.58,0,0,0-.56,1.88,2.47,2.47,0,0,0,1.93,1.45c1.89.36,5.81.67,7.5-1.71M306.09,483a.74.74,0,0,0,.39.69,2.07,2.07,0,0,0,1.12.19m2.87-3.23s-1.84,1.7-2.54,2.29a1,1,0,0,0-.33.94h0a1.12,1.12,0,0,0,.74.87m4.06-3.75s-3.49,3.09-3.88,3.29a.48.48,0,0,0-.18.46c0,.45.44,1,1.66,1M314,482s-2.94,2.54-3.49,2.89a.92.92,0,0,0-.46.83c0,.36.38.73,1.31.91a4,4,0,0,0,3-.66m-7.81-.83c0,1.92-.1,7.41,0,8.77,0,1.66,3.68,3.32,8.15,3.64a30.78,30.78,0,0,0,9.49-.66c1.66-.4,2.45-.63,2.55-2,.06-.78.36-4,.6-6.83.1-1.13.19-2.2.25-3.07h0m-.25,3.07a41.36,41.36,0,0,0,4.82-2.63c.32-.42.53-6.27,1.07-8.82.38-1.81,1.13-5.29,1.46-7.69h0m24.89-14.28a76,76,0,0,0,.95,7.88c.1.46.32,1.38.52,2.24m-16.07,4.16c.09.15.2.31.31.46l1.68,2.22M345,454a43.63,43.63,0,0,1-.82,7.32c-.31,1.24-1.22,4.55.77,7.59M373,485.12a4.91,4.91,0,0,0,.52-2V483c.11-4.35-4.57-7.94-5.65-10.45s-2.94-4.89-3.49-6.52c-.36-1.09-1.49-1.26-3.39-1.25-1,0-2.11,0-3.46,0-6.32,0-10.45,3.81-10.77,5.44a2.77,2.77,0,0,0,.15,1.35h0c.54,1.7,2.08,4,2.67,5.72.52,1.55.83,5.07,2.42,7.67h0a6.18,6.18,0,0,0,3.23,2.77c4.57,1.64,8.82,1,11.21.77,1.93-.18,5.27-.85,6.55-3.38m.52-2-.09-.1a9.3,9.3,0,0,0-6.87-3.19,17.32,17.32,0,0,0-6.26,1.12,7.69,7.69,0,0,0-3.32,2.47,9.43,9.43,0,0,0-1.22,2.31,9.21,9.21,0,0,0-.52,2m.52-2c1.69,2.38,5.61,2.07,7.5,1.71a2.49,2.49,0,0,0,1.93-1.45,1.58,1.58,0,0,0-.56-1.88c-1-.75-3.31-2.42-4.33-3.16m11.62,2.95a2.07,2.07,0,0,0,1.12-.19.73.73,0,0,0,.39-.69M371,484.77l.17,0a1.11,1.11,0,0,0,.75-.87h0a1,1,0,0,0-.33-.94c-.7-.59-2.54-2.29-2.54-2.29m.46,5.07c1.21.08,1.62-.51,1.66-1a.5.5,0,0,0-.17-.46c-.4-.2-3.89-3.29-3.89-3.29m-1.92,5a4,4,0,0,0,3,.66c.94-.18,1.28-.55,1.31-.91a.94.94,0,0,0-.46-.83c-.55-.35-3.49-2.89-3.49-2.89M352,485h0c.06.87.15,1.94.25,3.07.24,2.87.53,6.05.6,6.83.1,1.38.89,1.62,2.55,2a31,31,0,0,0,9.5.66c4.46-.32,8.08-2,8.14-3.64.05-1.36,0-6.84,0-8.77h0M344.9,468.89h0c.32,2.4,1.07,5.88,1.45,7.69.54,2.55.75,8.4,1.07,8.82a41.36,41.36,0,0,0,4.82,2.63m11-132.14c3.51-5.26,8.21-24.5,10.88-36.36a0,0,0,0,1,0,0M315.33,411c-.78-2.72-4.6-10.36-7.52-16m66-227.41c1.33-2.48,3.25-6.27,3.54-8M292.4,207c-1.43-.95-6.2-1.91-6.2-1.91m35.85,268.69c-3.83-2.13-9.18-1.45-9.18-1.45"/><g id="face02"><ellipse class="cls-2" cx="173.23" cy="42.89" rx="2.16" ry="1.51"/><ellipse class="cls-2" cx="190.84" cy="42.89" rx="2.16" ry="1.51"/><path class="cls-3" d="M175.67,36.16a9.4,9.4,0,0,0-2.66-.48,9.74,9.74,0,0,0-3.52.57"/><path class="cls-3" d="M188,36.16a9.55,9.55,0,0,1,2.67-.48,9.74,9.74,0,0,1,3.52.57"/><path class="cls-3" d="M180.36,53.35a2.46,2.46,0,0,0,4.47,0"/><path class="cls-3" d="M177,61.86a11.21,11.21,0,0,0,5.45,1.32,11.34,11.34,0,0,0,5.11-1.32"/></g><g id="face01"><ellipse class="cls-2" cx="329.78" cy="87.03" rx="2.08" ry="1.58"/><path class="cls-3" d="M330.87,86.53s2.57-.41,2.57-2.57"/><ellipse class="cls-2" cx="346.08" cy="86.88" rx="2.04" ry="1.58"/><path class="cls-3" d="M347.12,86.38s2.57-.41,2.57-2.57"/><path class="cls-3" d="M328.67,80.55a11.2,11.2,0,0,1,4.19.21"/><path class="cls-3" d="M336.52,96.39c0,.09.73,1.39,1.92,1.33a2.35,2.35,0,0,0,1.74-1.33"/><path class="cls-3" d="M333.44,103.43a13.37,13.37,0,0,0,10.11,0"/></g></svg>